HIERARCHY
ROOT Hips
{
	OFFSET	0.00	0.00	0.00
	CHANNELS 6 Xposition Yposition Zposition Zrotation Xrotation Yrotation
	JOINT LeftUpLeg
	{
		OFFSET	 0.126116	-0.014019	-0.065224
		CHANNELS 3 Zrotation Xrotation Yrotation
		JOINT LeftLeg
		{
			OFFSET	 0.000000	 0.000000	 0.569914
			CHANNELS 3 Zrotation Xrotation Yrotation
			JOINT LeftFoot
			{
				OFFSET	 0.000000	 0.000000	 0.544423
				CHANNELS 3 Zrotation Xrotation Yrotation
				JOINT LeftToeBase
				{
					OFFSET	 0.000000	 0.000000	 0.207117
					CHANNELS 3 Zrotation Xrotation Yrotation
					End Site
					{
						OFFSET	 0.000000	 0.000000	 0.207117
					}
				}
			}
		}
	}
	JOINT RightUpLeg
	{
		OFFSET	-0.124023	-0.008373	-0.065224
		CHANNELS 3 Zrotation Xrotation Yrotation
		JOINT RightLeg
		{
			OFFSET	 0.000000	 0.000000	 0.570047
			CHANNELS 3 Zrotation Xrotation Yrotation
			JOINT RightFoot
			{
				OFFSET	 0.000000	 0.000000	 0.544354
				CHANNELS 3 Zrotation Xrotation Yrotation
				JOINT RightToeBase
				{
					OFFSET	 0.000000	 0.000000	 0.207540
					CHANNELS 3 Zrotation Xrotation Yrotation
					End Site
					{
						OFFSET	 0.000000	 0.000000	 0.207540
					}
				}
			}
		}
	}
	JOINT Spine
	{
		OFFSET	 0.000184	-0.007763	 0.117403
		CHANNELS 3 Zrotation Xrotation Yrotation
		JOINT Spine1
		{
			OFFSET	 0.000000	 0.000000	 0.137269
			CHANNELS 3 Zrotation Xrotation Yrotation
			JOINT Spine2
			{
				OFFSET	 0.000000	 0.000000	 0.156879
				CHANNELS 3 Zrotation Xrotation Yrotation
				JOINT LeftShoulder
				{
					OFFSET	 0.080501	-0.002496	 0.160144
					CHANNELS 3 Zrotation Xrotation Yrotation
					JOINT LeftArm
					{
						OFFSET	 0.000000	 0.000000	 0.164363
						CHANNELS 3 Zrotation Xrotation Yrotation
						JOINT LeftForeArm
						{
							OFFSET	 0.000000	 0.000000	 0.364576
							CHANNELS 3 Zrotation Xrotation Yrotation
							JOINT LeftHand
							{
								OFFSET	 0.000000	 0.000000	 0.360812
								CHANNELS 3 Zrotation Xrotation Yrotation
								JOINT LeftHandIndex1
								{
									OFFSET	 0.000000	 0.000000	 0.086006
									CHANNELS 3 Zrotation Xrotation Yrotation
									JOINT LeftHandIndex2
									{
										OFFSET	 0.000000	 0.000000	 0.047237
										CHANNELS 3 Zrotation Xrotation Yrotation
										JOINT LeftHandIndex3
										{
											OFFSET	-0.004284	-0.000551	 0.038165
											CHANNELS 3 Zrotation Xrotation Yrotation
											End Site
											{
												OFFSET	-0.004284	-0.000551	 0.038165
											}
										}
									}
								}
							}
						}
					}
				}
				JOINT Neck
				{
					OFFSET	 0.000000	 0.000000	 0.176489
					CHANNELS 3 Zrotation Xrotation Yrotation
					JOINT Head
					{
						OFFSET	 0.000000	-0.001747	 0.077940
						CHANNELS 3 Zrotation Xrotation Yrotation
						End Site
						{
							OFFSET	 0.000000	-0.001747	 0.077940
						}
					}
				}
				JOINT RightShoulder
				{
					OFFSET	-0.080363	 0.000306	 0.159706
					CHANNELS 3 Zrotation Xrotation Yrotation
					JOINT RightArm
					{
						OFFSET	 0.000000	 0.000000	 0.164196
						CHANNELS 3 Zrotation Xrotation Yrotation
						JOINT RightForeArm
						{
							OFFSET	 0.000000	 0.000000	 0.365611
							CHANNELS 3 Zrotation Xrotation Yrotation
							JOINT RightHand
							{
								OFFSET	 0.000000	 0.000000	 0.360648
								CHANNELS 3 Zrotation Xrotation Yrotation
								JOINT RightHandIndex1
								{
									OFFSET	 0.000000	 0.000000	 0.069977
									CHANNELS 3 Zrotation Xrotation Yrotation
									JOINT RightHandIndex2
									{
										OFFSET	 0.000000	 0.000000	 0.052305
										CHANNELS 3 Zrotation Xrotation Yrotation
										JOINT RightHandIndex3
										{
											OFFSET	 0.009002	-0.000782	 0.042196
											CHANNELS 3 Zrotation Xrotation Yrotation
											End Site
											{
												OFFSET	 0.009002	-0.000782	 0.042196
											}
										}
									}
								}
							}
						}
					}
				}
			}
		}
	}
}
MOTION
Frames:    5
Frame Time: 0.03333334
-0.720855	-1.662011	 1.276108	-176.634200	 6.066649	-1.624194	-4.302397	-6.064367	-179.558500	-0.690612	-6.763956	 0.148597	-17.648560	 51.430120	 7.424529	-2.385833	 28.452760	 0.000004	-0.435090	-10.440180	-178.316500	-5.112473	-16.908520	 1.688631	-4.830622	 82.586110	 14.903690	 2.384659	 28.388700	-0.000001	-6.718388	 7.244048	 3.143347	-3.195572	-12.778130	-14.071120	 8.218132	-6.279508	 16.353310	-91.776120	 78.527400	 180.000000	-39.121850	-2.229531	-12.948030	-6.096925	-2.490337	-15.421550	 7.653902	-3.299599	-4.170264	-4.131196	 21.524690	 0.986298	-5.167839	 0.733520	 3.519257	-1.378229	 35.397820	-2.634230	 1.548560	 8.115313	 0.744099	-13.865040	-9.498611	-4.850622	 89.782100	 78.203850	 180.000000	 1.188977	-1.034092	 0.570996	-6.860961	-7.047466	 18.925660	-27.875600	 39.479980	 83.384740	 5.715225	 19.176060	-3.692089	 5.027514	 0.245388	-9.378011	-2.350882	 35.473990	 5.254307
-0.720575	-1.661944	 1.275933	-176.516900	 5.934567	-1.827594	-4.141242	-5.804134	-179.347500	 0.127247	-6.485355	 0.234957	-18.437870	 49.871760	 7.804706	-2.385833	 28.452760	 0.000004	 1.112146	-10.345890	-178.084200	-6.020460	-17.220690	 1.447887	-3.627550	 84.899960	 14.455650	 2.384659	 28.388700	-0.000001	-6.865413	 7.144001	 3.268606	-3.255224	-12.396090	-13.573570	 8.226971	-6.393563	 15.844720	-91.776070	 78.527360	 179.999900	-38.349520	-2.291160	-12.313670	-6.490702	-2.529558	-16.346430	 7.303801	-3.510702	-4.047164	-4.131196	 21.524690	 0.986298	-5.167839	 0.733520	 3.519257	-1.378229	 35.397820	-2.634230	 1.443330	 8.012784	 1.060802	-13.735760	-9.075970	-4.671873	 89.782070	 78.203930	-180.000000	 0.809137	-1.147593	 0.466295	-6.709442	-7.104760	 19.216230	-27.486590	 39.256520	 82.105140	 5.715225	 19.176060	-3.692089	 5.027514	 0.245388	-9.378011	-2.350882	 35.473990	 5.254307
-0.720176	-1.661229	 1.275763	-176.278200	 5.373408	-2.030089	-4.936616	-5.450357	-179.204800	 3.221831	-7.055405	 0.637225	-21.592460	 44.902070	 9.664758	-2.385833	 28.452760	 0.000004	 2.633956	-9.906325	-177.839900	-7.238175	-17.704350	 1.115058	 10.418460	 84.895810	 1.352250	 2.384659	 28.388700	-0.000001	-7.343110	 6.942968	 3.499859	-3.489209	-10.424540	-13.571770	 8.748717	-7.461654	 15.977230	-91.776100	 78.527420	 179.999900	-37.366790	-1.752238	-9.731414	-7.978521	-2.748094	-21.136160	 6.148894	-4.156744	-3.663734	-4.131196	 21.524690	 0.986298	-5.167839	 0.733520	 3.519257	-1.378229	 35.397820	-2.634230	 1.628686	 8.169295	 1.216291	-13.538160	-9.323668	-4.712290	 89.782160	 78.203920	 180.000000	-0.796201	-0.616482	-1.006825	-6.371195	-8.188721	 22.246520	-26.011020	 39.217340	 79.387190	 5.715225	 19.176060	-3.692089	 5.027514	 0.245388	-9.378011	-2.350882	 35.473990	 5.254307
-0.719003	-1.659605	 1.275345	-176.088600	 4.867255	-1.292024	-6.223051	-6.512257	 179.797800	 3.167760	-10.909670	 0.971491	-19.724740	 38.770000	 10.585530	-2.385833	 28.452760	 0.000004	 2.137115	-9.302163	-178.514800	-7.104181	-17.172140	 1.122284	 13.776620	 73.343650	-2.809473	 2.384659	 28.388700	-0.000001	-7.841271	 7.080948	 2.497244	-3.773561	-8.623734	-13.620830	 9.260674	-8.583438	 16.293580	-91.776130	 78.527380	 179.999900	-36.179240	-0.280813	-4.938745	-8.658483	-3.658167	-29.672310	 5.849966	-4.377882	-3.580508	-4.131196	 21.524690	 0.986298	-5.167839	 0.733520	 3.519257	-1.378229	 35.397820	-2.634230	 2.010890	 8.352208	 0.594267	-13.533690	-9.687698	-4.261100	 89.782060	 78.203900	-180.000000	-1.130088	 0.783091	-3.430910	-6.353380	-10.532250	 27.720220	-24.182390	 40.711820	 75.846390	 5.715225	 19.176060	-3.692089	 5.027514	 0.245388	-9.378011	-2.350882	 35.473990	 5.254307
-0.715269	-1.655256	 1.274075	-175.452500	 3.910440	 0.150043	-4.143504	-7.708316	 177.718600	 0.891714	-16.938750	 0.829168	-10.893930	 25.086530	 9.048237	-2.385833	 28.452760	 0.000004	 1.917719	-8.495548	-179.803500	-8.471209	-16.713210	 0.698963	 19.025320	 69.294980	-7.647911	 2.384659	 28.388700	-0.000001	-9.258865	 7.359386	 0.491930	-4.719043	-4.747055	-13.130670	 10.165890	-10.994030	 16.028340	-91.776250	 78.527360	-179.999900	-33.600440	 3.426027	 4.827415	-9.568368	-5.696404	-45.975490	 5.697303	-4.816957	-3.549994	-4.131196	 21.524690	 0.986298	-5.167839	 0.733520	 3.519257	-1.378229	 35.397820	-2.634230	 2.506273	 8.827911	 0.028377	-13.404670	-10.200700	-3.818746	 89.782100	 78.203890	 180.000000	-2.078005	 3.956308	-7.892037	-3.952039	-14.309920	 39.341690	-19.693190	 44.543380	 68.205960	 5.715225	 19.176060	-3.692089	 5.027514	 0.245388	-9.378011	-2.350882	 35.473990	 5.254307
